<svg width="24" height="24" viewBox="0 0 24 24" fill="none" xmlns="http://www.w3.org/2000/svg">
<path d="M9.17949 18.9355C4.05128 20.4242 4.05128 16.4541 2 15.9579M16.359 21.913V18.072C16.3974 17.5987 16.3314 17.1229 16.1651 16.6763C15.9989 16.2296 15.7363 15.8223 15.3949 15.4815C18.6154 15.1341 22 13.953 22 8.53382C21.9997 7.14809 21.4489 5.8155 20.4615 4.81186C20.9291 3.5995 20.896 2.25944 20.3692 1.07005C20.3692 1.07005 19.159 0.722667 16.359 2.53898C14.0082 1.92245 11.5302 1.92245 9.17949 2.53898C6.37949 0.722667 5.16923 1.07005 5.16923 1.07005C4.64244 2.25944 4.60938 3.5995 5.07692 4.81186C4.08218 5.82294 3.53079 7.16758 3.53846 8.5636C3.53846 13.9431 6.92308 15.1242 10.1436 15.5113C9.80615 15.8487 9.54591 16.2511 9.3798 16.6923C9.2137 17.1335 9.14544 17.6036 9.17949 18.072V21.913" stroke="#F3F3F3" stroke-linecap="round" stroke-linejoin="round"/>
</svg>
