<svg width="24" height="24" viewBox="0 0 24 24" fill="none" xmlns="http://www.w3.org/2000/svg">
<g clip-path="url(#clip0_138_221)">
<g filter="url(#filter0_d_138_221)">
<path d="M16 8.31579C17.5913 8.31579 19.1174 8.9812 20.2426 10.1656C21.3679 11.3501 22 12.9565 22 14.6316V22H18V14.6316C18 14.0732 17.7893 13.5377 17.4142 13.1429C17.0391 12.7481 16.5304 12.5263 16 12.5263C15.4696 12.5263 14.9609 12.7481 14.5858 13.1429C14.2107 13.5377 14 14.0732 14 14.6316V22H10V14.6316C10 12.9565 10.6321 11.3501 11.7574 10.1656C12.8826 8.9812 14.4087 8.31579 16 8.31579Z" stroke="#F3F3F3" stroke-linecap="round" stroke-linejoin="round" shape-rendering="crispEdges"/>
<path d="M6 9.36842H2V22H6V9.36842Z" stroke="#F3F3F3" stroke-linecap="round" stroke-linejoin="round" shape-rendering="crispEdges"/>
<path d="M4 6.21053C5.10457 6.21053 6 5.26797 6 4.10526C6 2.94256 5.10457 2 4 2C2.89543 2 2 2.94256 2 4.10526C2 5.26797 2.89543 6.21053 4 6.21053Z" stroke="#F3F3F3" stroke-linecap="round" stroke-linejoin="round" shape-rendering="crispEdges"/>
</g>
</g>
<defs>
<filter id="filter0_d_138_221" x="-2.5" y="1.5" width="29" height="29" filterUnits="userSpaceOnUse" color-interpolation-filters="sRGB">
<feFlood flood-opacity="0" result="BackgroundImageFix"/>
<feColorMatrix in="SourceAlpha" type="matrix" values="0 0 0 0 0 0 0 0 0 0 0 0 0 0 0 0 0 0 127 0" result="hardAlpha"/>
<feOffset dy="4"/>
<feGaussianBlur stdDeviation="2"/>
<feComposite in2="hardAlpha" operator="out"/>
<feColorMatrix type="matrix" values="0 0 0 0 0 0 0 0 0 0 0 0 0 0 0 0 0 0 0.25 0"/>
<feBlend mode="normal" in2="BackgroundImageFix" result="effect1_dropShadow_138_221"/>
<feBlend mode="normal" in="SourceGraphic" in2="effect1_dropShadow_138_221" result="shape"/>
</filter>
<clipPath id="clip0_138_221">
<rect width="24" height="24" fill="white"/>
</clipPath>
</defs>
</svg>
