<svg width="11" height="10" viewBox="0 0 11 10" fill="none" xmlns="http://www.w3.org/2000/svg">
<mask id="path-1-outside-1_205_35" maskUnits="userSpaceOnUse" x="-0.150293" y="-1.41897" width="12.004" height="12.913" fill="black">
<rect fill="white" x="-0.150293" y="-1.41897" width="12.004" height="12.913"/>
<path d="M8.4972 4.31008C8.4483 4.61759 8.43865 4.94063 8.46827 5.27918C8.53222 5.57682 8.53974 5.8794 8.49083 6.18691C8.41419 6.61057 8.196 6.9329 7.83629 7.15389C7.5142 7.37159 7.21256 7.60646 6.93137 7.85849C6.35724 7.795 5.88939 7.64641 5.5278 7.41271C5.18925 7.44233 4.90383 7.4294 4.67155 7.37391C4.43598 7.28081 4.21757 7.16725 4.01632 7.03324C3.8494 6.85832 3.68248 6.6834 3.51555 6.50848C3.34534 6.29594 3.13916 6.10551 2.897 5.93717C2.905 5.59533 2.87538 5.25678 2.80814 4.92152C2.73761 4.54864 2.74561 4.2068 2.83213 3.89599C2.89091 3.70133 2.97179 3.54263 3.07477 3.41991C3.21536 3.2939 3.27908 3.15566 3.26591 3.00519C3.55697 2.86601 3.78832 2.69415 3.95995 2.48961C4.14474 2.43554 4.35163 2.41744 4.58062 2.43531C4.84723 2.44989 5.03367 2.41463 5.13994 2.32952C5.65199 2.55005 6.10104 2.70029 6.48708 2.78023C6.91074 2.85688 7.30007 2.97444 7.65507 3.1329C7.70256 3.24246 7.75005 3.35202 7.79754 3.46158C7.88265 3.56785 7.95059 3.69457 8.00137 3.84174C8.19604 3.90052 8.36132 4.05663 8.4972 4.31008Z"/>
</mask>
<path d="M8.4972 4.31008C8.4483 4.61759 8.43865 4.94063 8.46827 5.27918C8.53222 5.57682 8.53974 5.8794 8.49083 6.18691C8.41419 6.61057 8.196 6.9329 7.83629 7.15389C7.5142 7.37159 7.21256 7.60646 6.93137 7.85849C6.35724 7.795 5.88939 7.64641 5.5278 7.41271C5.18925 7.44233 4.90383 7.4294 4.67155 7.37391C4.43598 7.28081 4.21757 7.16725 4.01632 7.03324C3.8494 6.85832 3.68248 6.6834 3.51555 6.50848C3.34534 6.29594 3.13916 6.10551 2.897 5.93717C2.905 5.59533 2.87538 5.25678 2.80814 4.92152C2.73761 4.54864 2.74561 4.2068 2.83213 3.89599C2.89091 3.70133 2.97179 3.54263 3.07477 3.41991C3.21536 3.2939 3.27908 3.15566 3.26591 3.00519C3.55697 2.86601 3.78832 2.69415 3.95995 2.48961C4.14474 2.43554 4.35163 2.41744 4.58062 2.43531C4.84723 2.44989 5.03367 2.41463 5.13994 2.32952C5.65199 2.55005 6.10104 2.70029 6.48708 2.78023C6.91074 2.85688 7.30007 2.97444 7.65507 3.1329C7.70256 3.24246 7.75005 3.35202 7.79754 3.46158C7.88265 3.56785 7.95059 3.69457 8.00137 3.84174C8.19604 3.90052 8.36132 4.05663 8.4972 4.31008Z" fill="#E74C3C"/>
<path d="M8.4972 4.31008L10.4724 4.6242L10.5782 3.95881L10.2598 3.36502L8.4972 4.31008ZM8.46827 5.27918L6.47588 5.45349L6.48674 5.57753L6.51289 5.69927L8.46827 5.27918ZM8.49083 6.18691L10.4589 6.54298L10.4627 6.52204L10.466 6.50103L8.49083 6.18691ZM7.83629 7.15389L6.78936 5.4498L6.75233 5.47255L6.71633 5.49688L7.83629 7.15389ZM6.93137 7.85849L6.71155 9.84637L7.60036 9.94465L8.26625 9.34781L6.93137 7.85849ZM5.5278 7.41271L6.61342 5.733L6.03709 5.36052L5.35349 5.42033L5.5278 7.41271ZM4.67155 7.37391L3.93644 9.23391L4.06862 9.28616L4.20687 9.31918L4.67155 7.37391ZM4.01632 7.03324L2.56942 8.41399L2.72283 8.57476L2.9078 8.69793L4.01632 7.03324ZM3.51555 6.50848L1.95448 7.7587L2.00873 7.82644L2.06865 7.88923L3.51555 6.50848ZM2.897 5.93717L0.897546 5.89039L0.872395 6.96552L1.75541 7.57936L2.897 5.93717ZM2.80814 4.92152L0.842985 5.29322L0.845027 5.30401L0.847187 5.31479L2.80814 4.92152ZM2.83213 3.89599L0.91751 3.31788L0.911226 3.33869L0.905398 3.35963L2.83213 3.89599ZM3.07477 3.41991L1.73988 1.93059L1.63404 2.02546L1.54268 2.13433L3.07477 3.41991ZM3.26591 3.00519L2.40312 1.20086L1.15272 1.79877L1.27352 3.1795L3.26591 3.00519ZM3.95995 2.48961L3.39828 0.570099L2.8171 0.740158L2.42786 1.20404L3.95995 2.48961ZM4.58062 2.43531L4.42501 4.42925L4.4482 4.43106L4.47141 4.43233L4.58062 2.43531ZM5.13994 2.32952L5.93105 0.49264L4.82754 0.017375L3.88972 0.768443L5.13994 2.32952ZM6.48708 2.78023L6.08153 4.73868L6.10621 4.74379L6.13101 4.74828L6.48708 2.78023ZM7.65507 3.1329L9.4901 2.33749L9.18069 1.62369L8.47029 1.30659L7.65507 3.1329ZM7.79754 3.46158L5.96252 4.25699L6.06904 4.50274L6.23646 4.71179L7.79754 3.46158ZM8.00137 3.84174L6.11075 4.49408L6.44429 5.46077L7.42326 5.75637L8.00137 3.84174ZM6.52202 3.99596C6.44522 4.47893 6.4333 4.96675 6.47588 5.45349L10.4607 5.10486C10.444 4.9145 10.4514 4.75625 10.4724 4.6242L6.52202 3.99596ZM6.51289 5.69927C6.52378 5.74994 6.52668 5.80346 6.51566 5.87279L10.466 6.50103C10.5528 5.95533 10.5407 5.4037 10.4237 4.85909L6.51289 5.69927ZM6.52278 5.83085C6.52873 5.79799 6.55067 5.71807 6.61347 5.6253C6.67686 5.53166 6.74776 5.47536 6.78936 5.4498L8.88322 8.85798C9.73861 8.33246 10.2832 7.51388 10.4589 6.54298L6.52278 5.83085ZM6.71633 5.49688C6.32108 5.76403 5.94738 6.05466 5.59648 6.36917L8.26625 9.34781C8.47773 9.15826 8.70731 8.97916 8.95626 8.8109L6.71633 5.49688ZM7.15118 5.8706C6.78509 5.83013 6.6408 5.7507 6.61342 5.733L4.44219 9.09243C5.13797 9.54212 5.9294 9.75988 6.71155 9.84637L7.15118 5.8706ZM5.35349 5.42033C5.25632 5.42883 5.19009 5.42908 5.15036 5.42728C5.11004 5.42545 5.10849 5.42202 5.13623 5.42865L4.20687 9.31918C4.71615 9.44084 5.23228 9.44621 5.70211 9.4051L5.35349 5.42033ZM5.40667 5.51391C5.29587 5.47012 5.20341 5.42087 5.12484 5.36855L2.9078 8.69793C3.23173 8.91363 3.57608 9.0915 3.93644 9.23391L5.40667 5.51391ZM5.46322 5.65249C5.46013 5.64925 5.43502 5.62294 5.43192 5.61969C5.42883 5.61645 5.40372 5.59014 5.40063 5.5869C5.39753 5.58365 5.37242 5.55734 5.36933 5.5541C5.36623 5.55085 5.34113 5.52454 5.33803 5.5213C5.33494 5.51806 5.30983 5.49175 5.30673 5.4885C5.30364 5.48526 5.27853 5.45895 5.27543 5.45571C5.27234 5.45246 5.24723 5.42615 5.24414 5.42291C5.24104 5.41966 5.21594 5.39335 5.21284 5.39011C5.08935 5.26071 5.21114 5.38833 5.08765 5.25892C5.05677 5.22657 4.99333 5.16008 4.96246 5.12773L2.06865 7.88923C2.07794 7.89896 2.09066 7.9123 2.09995 7.92203C2.10923 7.93176 2.12196 7.9451 2.13125 7.95483C2.14053 7.96456 2.15326 7.97789 2.16254 7.98762C2.17183 7.99735 2.18456 8.01069 2.19384 8.02042C2.20313 8.03015 2.21585 8.04349 2.22514 8.05322C2.23442 8.06295 2.24715 8.07629 2.25644 8.08602C2.26572 8.09574 2.27845 8.10908 2.28774 8.11881C2.29702 8.12854 2.30975 8.14188 2.31903 8.15161C2.33756 8.17102 2.55089 8.39458 2.56942 8.41399L5.46322 5.65249ZM5.07663 5.25827C4.77662 4.88365 4.42564 4.56405 4.03859 4.29498L1.75541 7.57936C1.85267 7.64697 1.91406 7.70824 1.95448 7.7587L5.07663 5.25827ZM4.89645 5.98395C4.9079 5.49445 4.86537 5.00832 4.7691 4.52825L0.847187 5.31479C0.885384 5.50524 0.902091 5.6962 0.897546 5.89039L4.89645 5.98395ZM4.7733 4.54982C4.76131 4.48643 4.76032 4.44852 4.7607 4.43226C4.76105 4.41704 4.7626 4.41896 4.75887 4.43236L0.905398 3.35963C0.723239 4.01399 0.725411 4.67161 0.842985 5.29322L4.7733 4.54982ZM4.74676 4.47411C4.74653 4.47487 4.73925 4.499 4.7188 4.53912C4.69806 4.57983 4.66279 4.63883 4.60686 4.70549L1.54268 2.13433C1.22552 2.51231 1.03428 2.93115 0.91751 3.31788L4.74676 4.47411ZM4.40965 4.90923C4.88903 4.47956 5.33994 3.76407 5.2583 2.83088L1.27352 3.1795C1.24952 2.90518 1.299 2.62895 1.41164 2.38456C1.51802 2.15375 1.65428 2.00731 1.73988 1.93059L4.40965 4.90923ZM4.1287 4.80952C4.62467 4.57236 5.10275 4.23912 5.49203 3.77519L2.42786 1.20404C2.44991 1.17776 2.46534 1.16622 2.46506 1.16643C2.46408 1.16715 2.44611 1.18031 2.40312 1.20086L4.1287 4.80952ZM4.52161 4.40913C4.43369 4.43485 4.39215 4.42668 4.42501 4.42925L4.73623 0.441375C4.31111 0.408198 3.85578 0.436228 3.39828 0.570099L4.52161 4.40913ZM4.47141 4.43233C4.82184 4.45149 5.66991 4.46741 6.39015 3.8906L3.88972 0.768443C4.17257 0.541921 4.44008 0.475189 4.54871 0.454641C4.66352 0.432925 4.72185 0.440045 4.68983 0.438293L4.47141 4.43233ZM4.34882 4.1664C4.93838 4.42032 5.52137 4.62269 6.08153 4.73868L6.89263 0.821779C6.6807 0.777895 6.3656 0.679794 5.93105 0.49264L4.34882 4.1664ZM6.13101 4.74828C6.4132 4.79933 6.6464 4.87286 6.83986 4.95921L8.47029 1.30659C7.95374 1.07601 7.40827 0.914424 6.84314 0.812181L6.13101 4.74828ZM5.82005 3.92831C5.82038 3.92908 5.82083 3.93012 5.82116 3.93088C5.82149 3.93165 5.82194 3.93269 5.82227 3.93345C5.8226 3.93421 5.82306 3.93526 5.82339 3.93602C5.82372 3.93678 5.82417 3.93782 5.8245 3.93858C5.82483 3.93935 5.82528 3.94039 5.82561 3.94115C5.82594 3.94192 5.8264 3.94296 5.82673 3.94372C5.82706 3.94448 5.82751 3.94553 5.82784 3.94629C5.82817 3.94705 5.82862 3.9481 5.82895 3.94886C5.82928 3.94962 5.82974 3.95066 5.83006 3.95142C5.8304 3.95219 5.83085 3.95323 5.83118 3.95399C5.83151 3.95476 5.83196 3.9558 5.83229 3.95656C5.83262 3.95732 5.83307 3.95837 5.8334 3.95913C5.83373 3.95989 5.83419 3.96093 5.83452 3.96169C5.83485 3.96246 5.8353 3.9635 5.83563 3.96426C5.83596 3.96503 5.83641 3.96607 5.83674 3.96683C5.83707 3.96759 5.83753 3.96864 5.83786 3.9694C5.83819 3.97016 5.83864 3.97121 5.83897 3.97197C5.8393 3.97273 5.83975 3.97377 5.84008 3.97453C5.84041 3.9753 5.84087 3.97634 5.84119 3.9771C5.84153 3.97787 5.84198 3.97891 5.84231 3.97967C5.84264 3.98043 5.84309 3.98148 5.84342 3.98224C5.84375 3.983 5.84421 3.98405 5.84453 3.98481C5.84486 3.98557 5.84532 3.98661 5.84565 3.98737C5.84598 3.98814 5.84643 3.98918 5.84676 3.98994C5.84709 3.9907 5.84754 3.99175 5.84787 3.99251C5.8482 3.99327 5.84866 3.99432 5.84899 3.99508C5.84932 3.99584 5.84977 3.99688 5.8501 3.99764C5.85043 3.99841 5.85088 3.99945 5.85121 4.00021C5.85154 4.00098 5.852 4.00202 5.85233 4.00278C5.85266 4.00354 5.85311 4.00459 5.85344 4.00535C5.85377 4.00611 5.85422 4.00716 5.85455 4.00792C5.85488 4.00868 5.85534 4.00972 5.85566 4.01048C5.856 4.01125 5.85645 4.01229 5.85678 4.01305C5.85711 4.01381 5.85756 4.01486 5.85789 4.01562C5.85822 4.01638 5.85867 4.01743 5.859 4.01819C5.85933 4.01895 5.85979 4.01999 5.86012 4.02075C5.86045 4.02152 5.8609 4.02256 5.86123 4.02332C5.86156 4.02409 5.86201 4.02513 5.86234 4.02589C5.86267 4.02665 5.86313 4.0277 5.86346 4.02846C5.86379 4.02922 5.86424 4.03027 5.86457 4.03103C5.8649 4.03179 5.86535 4.03283 5.86568 4.03359C5.86601 4.03436 5.86647 4.0354 5.86679 4.03616C5.86713 4.03692 5.86758 4.03797 5.86791 4.03873C5.86824 4.03949 5.86869 4.04054 5.86902 4.0413C5.86935 4.04206 5.86981 4.0431 5.87013 4.04386C5.87046 4.04463 5.87092 4.04567 5.87125 4.04643C5.87158 4.0472 5.87203 4.04824 5.87236 4.049C5.87269 4.04976 5.87314 4.05081 5.87347 4.05157C5.8738 4.05233 5.87426 4.05338 5.87459 4.05414C5.87492 4.0549 5.87537 4.05594 5.8757 4.0567C5.87603 4.05747 5.87648 4.05851 5.87681 4.05927C5.87714 4.06003 5.8776 4.06108 5.87793 4.06184C5.87826 4.0626 5.87871 4.06365 5.87904 4.06441C5.87937 4.06517 5.87982 4.06621 5.88015 4.06697C5.88048 4.06774 5.88094 4.06878 5.88126 4.06954C5.8816 4.07031 5.88205 4.07135 5.88238 4.07211C5.88271 4.07287 5.88316 4.07392 5.88349 4.07468C5.88382 4.07544 5.88427 4.07649 5.8846 4.07725C5.88493 4.07801 5.88539 4.07905 5.88572 4.07981C5.88605 4.08058 5.8865 4.08162 5.88683 4.08238C5.88716 4.08314 5.88761 4.08419 5.88794 4.08495C5.88827 4.08571 5.88873 4.08676 5.88906 4.08752C5.88939 4.08828 5.88984 4.08932 5.89017 4.09008C5.8905 4.09085 5.89095 4.09189 5.89128 4.09265C5.91239 4.14135 5.94141 4.2083 5.96252 4.25699L9.63257 2.66616C9.59035 2.56878 9.60354 2.59921 9.56133 2.50183C9.55737 2.49269 9.56084 2.50068 9.55688 2.49155C9.55292 2.48242 9.55638 2.49041 9.55243 2.48128C9.54847 2.47215 9.55193 2.48014 9.54798 2.47101C9.54402 2.46188 9.54748 2.46987 9.54352 2.46074C9.53957 2.45161 9.54303 2.4596 9.53907 2.45047C9.53511 2.44134 9.53858 2.44933 9.53462 2.4402C9.53066 2.43107 9.53412 2.43905 9.53017 2.42993C9.52621 2.4208 9.52967 2.42878 9.52572 2.41966C9.52176 2.41052 9.52522 2.41851 9.52126 2.40938C9.5173 2.40025 9.52077 2.40824 9.51681 2.39911C9.51285 2.38998 9.51631 2.39797 9.51236 2.38884C9.5084 2.37971 9.51186 2.3877 9.50791 2.37857C9.50395 2.36944 9.50741 2.37743 9.50345 2.3683C9.4995 2.35917 9.50296 2.36716 9.499 2.35803C9.49504 2.3489 9.49851 2.35689 9.49455 2.34776C9.49059 2.33863 9.49405 2.34661 9.4901 2.33749L5.82005 3.92831ZM6.23646 4.71179C6.1593 4.61544 6.12416 4.53294 6.11075 4.49408L9.892 3.18941C9.77703 2.85619 9.60599 2.52025 9.35862 2.21136L6.23646 4.71179ZM7.42326 5.75637C6.93104 5.60775 6.74436 5.27339 6.73457 5.25513L10.2598 3.36502C9.97827 2.83987 9.46103 2.1933 8.57948 1.92712L7.42326 5.75637Z" fill="#E74C3C" mask="url(#path-1-outside-1_205_35)"/>
</svg>
